<?xml version="1.0" encoding="UTF-8"?>
<svg version="1.1" xmlns="http://www.w3.org/2000/svg" width="1080" height="1080">
<path d="M0 0 C356.4 0 712.8 0 1080 0 C1080 356.4 1080 712.8 1080 1080 C723.6 1080 367.2 1080 0 1080 C0 723.6 0 367.2 0 0 Z " fill="#FEFEF9" transform="translate(0,0)"/>
<path d="M0 0 C2.6794459 2.57417808 4.9511433 5.15076377 7.06640625 8.203125 C7.6284375 9.01007813 8.19046875 9.81703125 8.76953125 10.6484375 C9.65705078 11.93621094 9.65705078 11.93621094 10.5625 13.25 C11.18382812 14.14460938 11.80515625 15.03921875 12.4453125 15.9609375 C16.14646816 21.29607358 19.82479317 26.64696635 23.5 32 C25.33211322 34.66750753 27.16564267 37.33403521 29 40 C29.56783203 40.82628906 30.13566406 41.65257812 30.72070312 42.50390625 C32.55842698 45.17302817 34.40348905 47.83695133 36.25 50.5 C36.81654297 51.325 37.38308594 52.15 37.96679688 53 C43.74426648 61.3055339 49.59960608 68.20852854 57.9375 74 C58.6996582 74.54052002 59.46181641 75.08104004 60.24707031 75.63793945 C67.85033957 80.98763119 75.6050226 86.11601553 83.35913086 91.2434082 C90.07980489 95.69192393 96.67089072 100.27409926 103.1953125 105.00390625 C106.70764923 107.50363336 110.30433503 109.78260102 114 112 C113.34689883 115.59205646 111.84122755 118.13235271 109.875 121.1875 C109.25367188 122.15429688 108.63234375 123.12109375 107.9921875 124.1171875 C105.61188558 127.5616244 102.98262358 130.71763708 100.1875 133.83203125 C98.78390132 135.99003907 98.78390132 135.99003907 98.97265625 138.75 C100.36871884 143.16644136 102.73522859 146.46200511 105.4375 150.1875 C105.94087891 150.89841797 106.44425781 151.60933594 106.96289062 152.34179688 C107.89667362 153.6600058 108.83489006 154.97509414 109.77905273 156.28588867 C113.00611903 160.81642906 113.00611903 160.81642906 112.9375 162.875 C110.60023977 168.17278986 105.35198156 171.29482001 100.625 174.3125 C93.72485888 178.81405005 86.9441372 183.4735291 80.1875 188.1875 C79.23375488 188.85241455 78.28000977 189.5173291 77.29736328 190.20239258 C76.36778809 190.85103271 75.43821289 191.49967285 74.48046875 192.16796875 C73.57345215 192.80009277 72.66643555 193.4322168 71.73193359 194.08349609 C69.86336546 195.39433254 68.00200558 196.71548838 66.14697266 198.04541016 C65.24897949 198.68655762 64.35098633 199.32770508 63.42578125 199.98828125 C62.62180908 200.56747314 61.81783691 201.14666504 60.98950195 201.7434082 C59 203 59 203 57 203 C57.99 207.455 57.99 207.455 59 212 C58.25234375 212.04898438 57.5046875 212.09796875 56.734375 212.1484375 C55.74953125 212.22320313 54.7646875 212.29796875 53.75 212.375 C52.77546875 212.44460938 51.8009375 212.51421875 50.796875 212.5859375 C46.88664566 213.1648262 44.78778001 213.98185541 42.33105469 217.15698242 C41.78352539 218.04748291 41.23599609 218.9379834 40.671875 219.85546875 C40.04490723 220.85924561 39.41793945 221.86302246 38.77197266 222.8972168 C38.10472168 223.98301025 37.4374707 225.06880371 36.75 226.1875 C35.31876508 228.47117857 33.88499828 230.75292337 32.4453125 233.03125 C32.07880585 233.61222946 31.71229919 234.19320892 31.33468628 234.79179382 C25.77839737 243.55752965 19.76887061 252.01429283 13.77294922 260.48242188 C12.12313868 262.82514375 10.49673088 265.1819976 8.87890625 267.546875 C7.98190744 268.84384449 7.08478331 270.14072732 6.1875 271.4375 C5.7970752 272.01717529 5.40665039 272.59685059 5.00439453 273.1940918 C3.91796875 274.74609375 3.91796875 274.74609375 2 277 C-1.5631863 277 -2.37827563 276.26279337 -5.1953125 274.19140625 C-5.99324219 273.60939453 -6.79117188 273.02738281 -7.61328125 272.42773438 C-8.44214844 271.81220703 -9.27101563 271.19667969 -10.125 270.5625 C-10.96160156 269.95083984 -11.79820312 269.33917969 -12.66015625 268.70898438 C-18.77711816 264.22288184 -18.77711816 264.22288184 -20 263 C-26.13430483 262.03569052 -29.22542155 264.04550071 -34.17382812 267.57226562 C-35.4180957 268.49555664 -35.4180957 268.49555664 -36.6875 269.4375 C-38.3543637 270.64964839 -40.02480646 271.85689421 -41.69921875 273.05859375 C-42.42971436 273.59798584 -43.16020996 274.13737793 -43.9128418 274.69311523 C-45.97715137 275.98569322 -47.61964691 276.56528596 -50 277 C-54.00043298 272.68374337 -57.3482192 268.10675894 -60.578125 263.1953125 C-61.46851756 261.85045842 -62.35898204 260.50565195 -63.24951172 259.16088867 C-63.70436951 258.47231781 -64.15922729 257.78374695 -64.62786865 257.0743103 C-66.81286365 253.77115886 -69.01236391 250.47771568 -71.2109375 247.18359375 C-72.07168968 245.89262819 -72.93236681 244.60161259 -73.79296875 243.31054688 C-74.21755371 242.67366943 -74.64213867 242.03679199 -75.07958984 241.38061523 C-86 225 -86 225 -88.1640625 221.71630859 C-91.36784023 216.97625128 -95.01450354 212.72298347 -100.7421875 211.3359375 C-103.18050643 211.09417783 -105.55109525 210.96487227 -108 211 C-107.505 207.04 -107.505 207.04 -107 203 C-107.72888428 202.51756836 -108.45776855 202.03513672 -109.20874023 201.53808594 C-123.27723853 192.21744267 -137.3149559 182.88004576 -151 173 C-151.58281738 172.57944336 -152.16563477 172.15888672 -152.76611328 171.72558594 C-155.85237845 169.49499772 -158.93072093 167.25389823 -162 165 C-161.51084508 159.9127888 -158.96963168 156.56951557 -156.125 152.5 C-154.80359038 150.57691108 -153.48498527 148.65208694 -152.17285156 146.72265625 C-151.16152335 145.23724162 -150.1402837 143.75858393 -149.1171875 142.28125 C-147.79710131 140.13017268 -147.79710131 140.13017268 -148.28027344 138.09179688 C-149.05613228 135.83685843 -150.03291599 134.20175316 -151.3984375 132.25 C-151.87796875 131.5590625 -152.3575 130.868125 -152.8515625 130.15625 C-153.35429687 129.4446875 -153.85703125 128.733125 -154.375 128 C-154.87 127.2884375 -155.365 126.576875 -155.875 125.84375 C-158.76538027 121.69866208 -158.76538027 121.69866208 -161.9140625 117.75 C-163 116 -163 116 -162.87841797 114.12109375 C-161.61960426 111.08146798 -159.76378106 110.11155772 -157.03125 108.3125 C-155.47494873 107.27367676 -155.47494873 107.27367676 -153.88720703 106.21386719 C-152.75816045 105.47587714 -151.62909094 104.73792218 -150.5 104 C-148.76966021 102.85069184 -147.04207582 101.69731712 -145.31448364 100.54388428 C-144.16180005 99.7748316 -143.00821317 99.0071311 -141.85372925 98.24078369 C-137.2162307 95.16047643 -132.65399096 91.98696634 -128.125 88.75 C-123.7953884 85.65734448 -119.44405879 82.61214965 -115.01953125 79.65625 C-114.17310059 79.0880957 -113.32666992 78.51994141 -112.45458984 77.93457031 C-110.83895087 76.85329884 -109.2185535 75.7790848 -107.59228516 74.71386719 C-98.10955525 68.35367505 -91.66540379 60.59674276 -85.3125 51.1875 C-84.62115967 50.17848633 -83.92981934 49.16947266 -83.2175293 48.12988281 C-81.13768163 45.09152161 -79.06868994 42.04596412 -77 39 C-75.84487757 37.31302945 -74.68870285 35.62677873 -73.53125 33.94140625 C-70.89209088 30.09681258 -68.26131336 26.24659501 -65.63378906 22.39404297 C-62.65599492 18.0305867 -59.67121869 13.67190615 -56.6875 9.3125 C-55.58721171 7.70444616 -54.48694857 6.0963751 -53.38671875 4.48828125 C-52.59114583 3.32552083 -51.79557292 2.16276042 -51 1 C-46.88241926 1.5702405 -44.20189602 2.90137588 -40.75 5.1875 C-39.79222656 5.81011719 -38.83445312 6.43273437 -37.84765625 7.07421875 C-36.04206632 8.295283 -34.2552209 9.54493198 -32.49609375 10.83203125 C-31.35333984 11.65767578 -31.35333984 11.65767578 -30.1875 12.5 C-29.52105469 13.0053125 -28.85460937 13.510625 -28.16796875 14.03125 C-25.0492244 15.42485108 -23.24960639 14.93849956 -20 14 C-17.26194963 12.39373415 -17.26194963 12.39373415 -14.6875 10.3125 C-9.90527301 6.67669729 -5.0314558 3.27976378 0 0 Z " fill="#1359F9" transform="translate(351,399)"/>
<path d="M0 0 C4.46148036 1.58686745 7.71315192 3.90510074 11.4375 6.78515625 C13.02181086 7.96962678 14.60783577 9.15180714 16.1953125 10.33203125 C17.03739258 10.96173828 17.87947266 11.59144531 18.74707031 12.24023438 C23.5347623 15.76800742 28.42504844 19.14765631 33.3125 22.53515625 C34.29822998 23.22109863 35.28395996 23.90704102 36.29956055 24.61376953 C41.23655807 28.04070019 46.20234719 31.39899575 51.25 34.66015625 C62.68206635 42.31997016 70.07734903 51.64774288 77.80175781 62.85205078 C79.4240811 65.20320886 81.06521654 67.54017673 82.7109375 69.875 C83.72493052 71.32353869 84.73799362 72.77272892 85.75 74.22265625 C86.22429443 74.8988501 86.69858887 75.57504395 87.18725586 76.27172852 C90.4375 80.98943135 90.4375 80.98943135 90.4375 83.22265625 C91.0975 83.22265625 91.7575 83.22265625 92.4375 83.22265625 C93.84765625 85.171875 93.84765625 85.171875 95.5 87.91015625 C97.53570428 91.23428096 99.59623193 94.49246134 101.8984375 97.63671875 C102.51513306 98.48617065 102.51513306 98.48617065 103.14428711 99.3527832 C104.32590975 100.96805034 105.52011801 102.5740878 106.71484375 104.1796875 C108.76177408 107.79546693 109.26423304 109.14377455 108.4375 113.22265625 C106.60325601 116.54997096 104.38794371 119.55102677 102.125 122.59765625 C100.83132972 124.38881644 99.53836925 126.1804895 98.24609375 127.97265625 C97.6001123 128.85953125 96.95413086 129.74640625 96.28857422 130.66015625 C93.68752703 134.26086732 91.18481649 137.92464913 88.6875 141.59765625 C86.94147382 144.14206801 85.1901967 146.68283586 83.4375 149.22265625 C82.97263184 149.8971582 82.50776367 150.57166016 82.02880859 151.26660156 C80.6517369 153.2573323 79.26499124 155.24093166 77.875 157.22265625 C77.45702148 157.82899902 77.03904297 158.4353418 76.60839844 159.06005859 C75.60182639 160.4845714 74.52582804 161.85958395 73.4375 163.22265625 C72.7775 163.22265625 72.1175 163.22265625 71.4375 163.22265625 C70.12089056 161.33444564 68.96148161 159.46241399 67.8125 157.47265625 C67.42916504 156.82143799 67.04583008 156.17021973 66.65087891 155.49926758 C61.22637719 146.23526494 55.9394343 136.88997804 50.625 127.5625 C44.27661035 116.42188875 37.86495406 105.31780819 31.4375 94.22265625 C30.81536621 93.14870605 30.19323242 92.07475586 29.55224609 90.96826172 C23.52044117 80.56617264 17.47546159 70.18838586 11.11328125 59.984375 C8.86448134 56.27831081 6.79742529 52.48658459 4.76171875 48.66015625 C3.81739134 46.92192526 2.81268978 45.21593628 1.76953125 43.53515625 C0.4375 41.22265625 0.4375 41.22265625 0.4375 39.22265625 C-4.8748883 43.76341273 -7.70900011 49.44694554 -11 55.53515625 C-12.24944609 57.80701131 -13.50079605 60.07782019 -14.75390625 62.34765625 C-15.38828613 63.49878906 -16.02266602 64.64992188 -16.67626953 65.8359375 C-19.52244224 70.94622844 -22.47338127 75.99263528 -25.4375 81.03515625 C-30.53919038 89.73068011 -35.57231651 98.46287738 -40.5625 107.22265625 C-46.76165893 118.10029192 -53.01890938 128.94222923 -59.359375 139.73828125 C-61.44527092 143.2930476 -63.49641673 146.86398811 -65.515625 150.45703125 C-65.97018066 151.25665283 -66.42473633 152.05627441 -66.89306641 152.88012695 C-67.72867002 154.35196817 -68.55461454 155.82935492 -69.36865234 157.31323242 C-72.09004173 162.07056649 -72.09004173 162.07056649 -74.69287109 162.90844727 C-75.30984863 163.01213623 -75.92682617 163.1158252 -76.5625 163.22265625 C-77.14515625 162.26488281 -77.7278125 161.30710937 -78.328125 160.3203125 C-85.64158787 148.40073078 -93.44635253 136.87062805 -101.95703125 125.76953125 C-102.5082666 125.04830078 -103.05950195 124.32707031 -103.62744141 123.58398438 C-104.68226822 122.21140805 -105.74533865 120.84511417 -106.81787109 119.48632812 C-111.72224328 113.12407865 -111.72224328 113.12407865 -111.5625 109.22265625 C-110.22566114 106.70218928 -108.90430634 104.57910782 -107.25 102.28515625 C-106.79359131 101.62765381 -106.33718262 100.97015137 -105.86694336 100.29272461 C-104.44793358 98.25766525 -103.00816306 96.23884523 -101.5625 94.22265625 C-100.72631151 93.0457512 -99.89036253 91.86867594 -99.0546875 90.69140625 C-97.83577824 88.97944955 -96.61395139 87.26982051 -95.38549805 85.56469727 C-92.21300663 81.16068499 -89.12594529 76.70305922 -86.0625 72.22265625 C-72.67320289 52.68961823 -59.8468893 38.7908174 -40.1953125 25.39453125 C-33.66896976 20.93963063 -27.19738967 16.40551591 -20.71948242 11.88061523 C-18.87622188 10.59544279 -17.02860679 9.31648874 -15.17626953 8.04443359 C-13.46685693 6.8529861 -11.7787967 5.63014589 -10.11669922 4.37353516 C-6.55799246 1.76190965 -4.47616986 0.27976062 0 0 Z " fill="#FCFCF5" transform="translate(327.5625,427.77734375)"/>
<path d="M0 0 C2.20383585 -0.00969571 4.40673525 -0.04070084 6.61035156 -0.07226562 C8.00878351 -0.07879652 9.40722215 -0.08404665 10.80566406 -0.08789062 C12.08231934 -0.09723633 13.35897461 -0.10658203 14.67431641 -0.11621094 C17.84472656 0.24023438 17.84472656 0.24023438 19.65844727 1.41723633 C24.26972685 8.50355546 25.67667989 18.14947057 27.53222656 26.30273438 C29.32488164 34.02027658 31.20693462 41.70559892 33.23144531 49.36523438 C33.43680405 50.14603867 33.64216278 50.92684296 33.85374451 51.73130798 C35.08755268 56.42075949 35.08755268 56.42075949 36.34091187 61.10501099 C36.93155371 63.29502497 37.51012429 65.48794422 38.08691406 67.68164062 C38.42577637 68.94693604 38.76463867 70.21223145 39.11376953 71.51586914 C39.91298481 75.58802315 39.97352204 79.10475454 39.84472656 83.24023438 C35.69186772 84.39014108 31.63024903 84.4981649 27.34472656 84.55273438 C26.58546875 84.58173828 25.82621094 84.61074219 25.04394531 84.640625 C21.53460815 84.68057367 19.32837995 84.58191209 16.42285156 82.52929688 C14.75802535 80.1144747 13.87714737 78.12379607 13.09472656 75.30273438 C12.85238281 74.46871094 12.61003906 73.6346875 12.36035156 72.77539062 C11.84472656 70.24023438 11.84472656 70.24023438 11.84472656 65.24023438 C4.91472656 65.24023438 -2.01527344 65.24023438 -9.15527344 65.24023438 C-9.15527344 67.88023437 -9.15527344 70.52023437 -9.15527344 73.24023438 C-9.63574219 75.66601562 -9.63574219 75.66601562 -10.34277344 77.55273438 C-10.56320312 78.18824219 -10.78363281 78.82375 -11.01074219 79.47851562 C-12.69030834 82.06378639 -14.35374939 82.96892208 -17.15527344 84.24023438 C-20.60058594 84.56835938 -20.60058594 84.56835938 -24.28027344 84.49023438 C-25.49972656 84.47476563 -26.71917969 84.45929688 -27.97558594 84.44335938 C-31.15527344 84.24023438 -31.15527344 84.24023438 -34.15527344 83.24023438 C-33.87184665 80.84316739 -33.57883655 78.44792355 -33.28027344 76.05273438 C-33.16232422 75.04243164 -33.16232422 75.04243164 -33.04199219 74.01171875 C-32.54474329 70.09110244 -31.65337917 66.87068037 -30.15527344 63.24023438 C-29.31887088 60.15643118 -28.61863902 57.04197209 -27.90527344 53.92773438 C-27.46625635 52.05117764 -27.02610526 50.17488593 -26.58496094 48.29882812 C-26.23836426 46.82325439 -26.23836426 46.82325439 -25.88476562 45.31787109 C-24.63231552 40.03394004 -23.33680184 34.76101912 -22.03027344 29.49023438 C-21.78889648 28.50369873 -21.54751953 27.51716309 -21.29882812 26.50073242 C-20.01334703 21.33286983 -18.5857347 16.27832398 -16.8203125 11.25292969 C-16.10926543 9.10099428 -15.55808483 6.94382265 -15.03027344 4.74023438 C-13.25414145 -2.36429356 -6.23993139 0.01666203 0 0 Z " fill="#0D55F9" transform="translate(520.1552734375,495.759765625)"/>
<path d="M0 0 C3.14581423 -0.02888514 6.29159469 -0.04675923 9.4375 -0.0625 C10.33533203 -0.07087891 11.23316406 -0.07925781 12.15820312 -0.08789062 C13.01220703 -0.09111328 13.86621094 -0.09433594 14.74609375 -0.09765625 C15.93223267 -0.10551147 15.93223267 -0.10551147 17.14233398 -0.11352539 C19 0 19 0 20 1 C20.08713831 2.70772358 20.10700007 4.41898649 20.09765625 6.12890625 C20.09443359 7.16337891 20.09121094 8.19785156 20.08789062 9.26367188 C20.07951172 10.35228516 20.07113281 11.44089844 20.0625 12.5625 C20.05798828 13.65498047 20.05347656 14.74746094 20.04882812 15.87304688 C20.03699826 18.58208495 20.02051543 21.29101599 20 24 C21.08539062 23.96519531 22.17078125 23.93039062 23.2890625 23.89453125 C24.73435942 23.86637612 26.17967321 23.83907781 27.625 23.8125 C28.33785156 23.78736328 29.05070313 23.76222656 29.78515625 23.73632812 C35.76975039 23.65397132 39.46260187 25.45280602 44.5625 28.5625 C51.19037193 35.19037193 52.48075509 41.89297519 52.5 51 C52.31006913 61.74241134 51.03591369 71.18172564 43 79 C33.49330781 85.99290339 24.68911776 87.07419758 13 86 C8.77197029 84.72143643 4.91473861 83.0340635 1 81 C0.34 80.67 -0.32 80.34 -1 80 C-1.02313729 69.86460923 -1.04092219 59.72922471 -1.05181217 49.59381294 C-1.05703795 44.88789057 -1.0641301 40.18198622 -1.07543945 35.47607422 C-1.08627912 30.93736468 -1.09227914 26.3986725 -1.09487724 21.85995102 C-1.09672954 20.12554526 -1.10034643 18.39114049 -1.10573006 16.6567421 C-1.11295478 14.23354259 -1.11399033 11.81041552 -1.11352539 9.38720703 C-1.11712067 8.66503998 -1.12071594 7.94287292 -1.12442017 7.19882202 C-1.11405216 2.22810432 -1.11405216 2.22810432 0 0 Z " fill="#0D55F9" transform="translate(768,495)"/>
<path d="M0 0 C3.14581423 -0.02888514 6.29159469 -0.04675923 9.4375 -0.0625 C10.33533203 -0.07087891 11.23316406 -0.07925781 12.15820312 -0.08789062 C13.01220703 -0.09111328 13.86621094 -0.09433594 14.74609375 -0.09765625 C15.93223267 -0.10551147 15.93223267 -0.10551147 17.14233398 -0.11352539 C19 0 19 0 20 1 C20.16029688 3.95529504 20.25957328 6.88982457 20.31640625 9.84765625 C20.33718735 10.7340831 20.35796844 11.62050995 20.37937927 12.53379822 C20.444974 15.376617 20.50380552 18.21953117 20.5625 21.0625 C20.6056758 22.98503606 20.64928978 24.90756234 20.69335938 26.83007812 C20.80066543 31.55328668 20.90190451 36.27659153 21 41 C25.455 40.505 25.455 40.505 30 40 C29.99476318 38.82381104 29.98952637 37.64762207 29.98413086 36.43579102 C29.96608337 32.08797969 29.95456892 27.7401717 29.94506836 23.39233398 C29.94002756 21.5075627 29.93319502 19.62279535 29.92456055 17.73803711 C29.91248383 15.03498364 29.90676932 12.33198169 29.90234375 9.62890625 C29.89718246 8.78099014 29.89202118 7.93307404 29.88670349 7.0594635 C29.88650805 5.03928932 29.93793789 3.01922066 30 1 C30.33 0.67 30.66 0.34 31 0 C37.6 0 44.2 0 51 0 C51 13.53 51 27.06 51 41 C52.65 41 54.3 41 56 41 C58.44950621 43.44950621 58.32271254 44.24723021 58.375 47.625 C58.28535356 52.77219992 57.00356186 56.80159053 54 61 C51.13391871 62.43304064 49.18699217 62.30644155 46 62 C45.01 61.319375 44.02 60.63875 43 59.9375 C40.19245563 57.72704218 40.19245563 57.72704218 37.125 58.0625 C34.70711896 58.78786431 32.51050506 59.60569792 30.1875 60.5625 C22.3663557 63.58092641 15.58019248 62.0105729 8 59 C8 58.34 8 57.68 8 57 C7.01 56.67 6.02 56.34 5 56 C-0.41248351 50.26543889 -0.68092422 44.24825201 -0.48828125 36.71875 C-0.48120651 35.66465942 -0.47413177 34.61056885 -0.46684265 33.52453613 C-0.43901945 30.1822795 -0.37630131 26.84174393 -0.3125 23.5 C-0.28740163 21.22398265 -0.26459117 18.94793885 -0.24414062 16.671875 C-0.18923269 11.11400347 -0.10572807 5.55712473 0 0 Z " fill="#0C54FA" transform="translate(701,519)"/>
<path d="M0 0 C4.6777877 3.01510466 8.79867138 7.4840615 11.296875 12.48046875 C11.79821755 18.92079232 12.27636418 25.08890276 8.296875 30.48046875 C3.47371208 35.41081307 -0.61718928 38.32934555 -7.69140625 38.67578125 C-9.13294292 38.66261653 -10.57441719 38.63895526 -12.015625 38.60546875 C-12.75619141 38.59644531 -13.49675781 38.58742188 -14.25976562 38.578125 C-16.07435967 38.55471088 -17.88878571 38.5188449 -19.703125 38.48046875 C-19.373125 39.80046875 -19.043125 41.12046875 -18.703125 42.48046875 C-16.01555545 42.50767699 -13.32826702 42.52740755 -10.640625 42.54296875 C-9.51237305 42.55553711 -9.51237305 42.55553711 -8.36132812 42.56835938 C-3.69679382 42.58855216 0.69610673 42.25642834 5.296875 41.48046875 C7.96278437 46.03473059 8.61250682 49.21993838 8.296875 54.48046875 C6.90610199 55.30160052 5.50898607 56.1119937 4.109375 56.91796875 C3.33207031 57.37042969 2.55476562 57.82289063 1.75390625 58.2890625 C-5.61929187 61.86430165 -15.7677264 61.64615181 -23.515625 59.35546875 C-31.6654564 56.11049001 -36.17801521 51.72740596 -39.79296875 43.75 C-43.18914696 35.28141829 -43.15553518 23.97748305 -40.83203125 15.18359375 C-37.18657886 7.48631068 -31.26364203 1.28036983 -23.28515625 -1.859375 C-15.4754967 -3.85609582 -7.34743123 -3.32555303 0 0 Z " fill="#0E55F9" transform="translate(868.703125,520.51953125)"/>
<path d="M0 0 C34.65 0 69.3 0 105 0 C101.56730885 3.43269115 98.75663135 6.06743527 94.90234375 8.8125 C93.94054199 9.49957031 92.97874023 10.18664062 91.98779297 10.89453125 C91.00182129 11.58933594 90.01584961 12.28414062 89 13 C87.58871826 13.99580078 87.58871826 13.99580078 86.14892578 15.01171875 C80.33029639 19.09609366 74.48100192 23.1362389 68.63085938 27.17529297 C66.40510742 28.71902628 64.19173667 30.27783529 61.984375 31.84765625 C60.93765625 32.57855469 59.8909375 33.30945313 58.8125 34.0625 C57.95269531 34.67222656 57.09289062 35.28195312 56.20703125 35.91015625 C54 37 54 37 52.15209961 36.75512695 C49.55925101 35.84535035 47.61952975 34.57278048 45.359375 33.0078125 C44.46130127 32.39043213 43.56322754 31.77305176 42.63793945 31.13696289 C41.68491943 30.47301514 40.73189941 29.80906738 39.75 29.125 C38.27696411 28.10877563 38.27696411 28.10877563 36.77416992 27.07202148 C34.78258283 25.69762358 32.79257976 24.32092738 30.80419922 22.94189453 C28.33515786 21.23209522 25.85977162 19.53241731 23.37890625 17.83984375 C1.43147623 2.86295246 1.43147623 2.86295246 0 0 Z " fill="#F9F9F2" transform="translate(274,611)"/>
<path d="M0 0 C2.6421451 2.12871515 2.94873969 2.63385492 3.4375 6.125 C2.81094326 11.67450251 1.00852434 16.99147566 -3 21 C-8.36899365 20.65729828 -8.36899365 20.65729828 -10.5 18.4375 C-12.03855073 16.65212332 -12.03855073 16.65212332 -15.1875 16.8125 C-16.115625 16.874375 -17.04375 16.93625 -18 17 C-20.31983051 20.65854692 -20.23682033 23.79853292 -20.1875 28.0625 C-20.18105469 29.29097656 -20.17460938 30.51945313 -20.16796875 31.78515625 C-20.14216872 35.01732361 -20.14216872 35.01732361 -19 38 C-13.06 38 -7.12 38 -1 38 C-0.18764525 42.06177373 0.10732417 45.23350092 0.0625 49.3125 C0.05347656 50.38113281 0.04445313 51.44976563 0.03515625 52.55078125 C0.02355469 53.35902344 0.01195312 54.16726563 0 55 C-8.08985889 59.43016082 -17.8937595 60.56693117 -26.88671875 58.0078125 C-34.1617612 54.53838375 -39.54049092 48.49890185 -42.37890625 41.04296875 C-45.11637082 32.03860416 -46.04401172 20.02369044 -41.9375 11.3125 C-37.51730205 4.07036776 -31.96709594 -1.17672068 -23.75 -3.6875 C-15.07386573 -4.67342435 -7.93776366 -3.94907044 0 0 Z " fill="#0E55F9" transform="translate(692,522)"/>
<path d="M0 0 C2.75 1.4375 2.75 1.4375 5.75 3.4375 C5.75 4.0975 5.75 4.7575 5.75 5.4375 C6.28367187 5.66179687 6.81734375 5.88609375 7.3671875 6.1171875 C10.54221043 7.8764625 13.15123974 10.19059388 15.875 12.5625 C20.76107529 16.7689723 25.72045503 20.83857165 30.82421875 24.78125 C32.75 26.4375 32.75 26.4375 34.75 29.4375 C34.52062198 33.79568235 32.849228 36.42436167 29.75 39.4375 C27.375 40.0625 27.375 40.0625 24.75 39.4375 C20.67450858 36.4657875 17.3144418 33.0019418 13.75 29.4375 C7.53204857 23.58593635 7.53204857 23.58593635 0.75 18.4375 C-3.61316762 18.67910863 -5.75351016 20.37892594 -8.875 23.3125 C-9.73996094 24.11300781 -10.60492187 24.91351562 -11.49609375 25.73828125 C-13.41859207 27.62260229 -15.27035619 29.50958174 -17.09765625 31.48046875 C-17.57187012 31.98271973 -18.04608398 32.4849707 -18.53466797 33.00244141 C-19.87700802 34.43542329 -21.19501151 35.89108633 -22.51171875 37.34765625 C-25.25 39.4375 -25.25 39.4375 -28.9296875 39.9140625 C-32.25 39.4375 -32.25 39.4375 -34.6875 36.75 C-37.1050995 31.62468905 -37.1050995 31.62468905 -36.25 28.4375 C-32.09449133 23.01073374 -26.24426035 18.95272685 -20.95703125 14.70703125 C-18.48914843 12.63799818 -16.24026986 10.49737048 -14 8.1875 C-5.07907675 -0.87907098 -5.07907675 -0.87907098 0 0 Z " fill="#0F57FA" transform="translate(604.25,497.5625)"/>
<path d="M0 0 C4.19071213 1.39690404 5.28612428 4.35048006 7.375 8 C7.77855713 8.68916504 8.18211426 9.37833008 8.59790039 10.08837891 C10.98050068 14.17324837 13.29920663 18.2914111 15.56640625 22.44140625 C18.87775285 28.35130277 22.37261596 34.15804887 25.81591797 39.99169922 C29.47720058 46.2015365 33.09869328 52.43446219 36.69921875 58.6796875 C37.18140869 59.51516113 37.66359863 60.35063477 38.16040039 61.21142578 C39.11008262 62.85749943 40.05856213 64.50426778 41.00561523 66.15185547 C41.44977783 66.92158691 41.89394043 67.69131836 42.3515625 68.484375 C42.78629883 69.23783203 43.22103516 69.99128906 43.66894531 70.76757812 C45.38059914 73.63833429 47.21914304 76.41883747 49.09521484 79.18457031 C50 81 50 81 50 85 C48.27305325 85.13609913 46.54295278 85.23249228 44.8125 85.3125 C43.84957031 85.37050781 42.88664062 85.42851563 41.89453125 85.48828125 C37.93424734 84.82021716 36.26045936 83.14471619 34 80 C31.57164794 76.04164355 29.38053099 71.96730858 27.1875 67.875 C25.86295157 65.43930702 24.5300881 63.00822604 23.1953125 60.578125 C22.85361526 59.95503448 22.51191803 59.33194397 22.15986633 58.68997192 C18.43211657 51.91991052 14.51566167 45.26525103 10.5625 38.625 C9.92530029 37.55233887 9.28810059 36.47967773 8.6315918 35.37451172 C8.01195557 34.33568848 7.39231934 33.29686523 6.75390625 32.2265625 C6.14949707 31.20852539 5.54508789 30.19048828 4.92236328 29.14160156 C3.55765618 26.91134362 2.17002858 24.73768473 0.71435547 22.56933594 C0.33891098 21.99734467 -0.03653351 21.42535339 -0.4233551 20.83602905 C-1.47303353 19.24273293 -2.54268593 17.66264782 -3.61352539 16.08349609 C-5.3424374 12.23842501 -4.97074661 10.04670848 -4 6 C-2.88606352 3.71396972 -1.5472559 2.04637071 0 0 Z " fill="#F5F6F1" transform="translate(298,522)"/>
<path d="M0 0 C7.65914966 6.73076789 12.15746194 16.0090288 16.5078125 25.07421875 C17.98852969 27.97750978 19.66120169 30.64506688 21.4375 33.375 C23.2805225 36.40316819 23.9864897 37.64873217 24.125 41.25 C22.79544912 44.50001326 21.08201641 47.17920358 19 50 C17.02 49.01 15.04 48.02 13 47 C12.01 48.32 11.02 49.64 10 51 C5.71921567 49.57307189 3.75185734 46.40473702 1 43 C-0.07314453 41.70449219 -0.07314453 41.70449219 -1.16796875 40.3828125 C-7 33.26050885 -7 33.26050885 -7 31 C-7.99 30.67 -8.98 30.34 -10 30 C-14 25.11111111 -14 25.11111111 -14 21.375 C-12.81364961 18.55741782 -11.29017904 16.99467207 -9 15 C-7.68 15.66 -6.36 16.32 -5 17 C-5 17.66 -5 18.32 -5 19 C-4.34 19 -3.68 19 -3 19 C-1.6273318 20.97321053 -0.29572383 22.97543152 1 25 C1.66 25.66 2.32 26.32 3 27 C2.4225 26.05898438 1.845 25.11796875 1.25 24.1484375 C0.49931217 22.89103539 -0.25064969 21.63319967 -1 20.375 C-1.3815625 19.75753906 -1.763125 19.14007813 -2.15625 18.50390625 C-4.48946378 14.54577573 -5.68949235 11.72037069 -5 7 C-3.90625 4.8828125 -3.90625 4.8828125 -2.5 3.125 C-2.0359375 2.52945312 -1.571875 1.93390625 -1.09375 1.3203125 C-0.7328125 0.88460938 -0.371875 0.44890625 0 0 Z " fill="#F4F5F0" transform="translate(326,475)"/>
<path d="M0 0 C0.99 0 1.98 0 3 0 C4.73022579 3.02022779 6.45908256 6.04123699 8.1875 9.0625 C8.72632813 10.00407959 9.26515625 10.94565918 9.8203125 11.91577148 C12.6532474 16.87218082 15.47451849 21.83459491 18.26953125 26.8125 C19.3462861 28.7292049 20.42310883 30.64587168 21.5 32.5625 C22.03294678 33.51181396 22.56589355 34.46112793 23.11499023 35.43920898 C27.34550197 42.93524464 31.74958324 50.31708625 36.30664062 57.61938477 C37.01336914 58.77071899 37.01336914 58.77071899 37.734375 59.9453125 C38.14913086 60.61062988 38.56388672 61.27594727 38.99121094 61.96142578 C40.14154836 64.28604279 40.59287473 66.44797907 41 69 C38.96578707 69.27163081 36.92100609 69.46479818 34.875 69.625 C33.73804688 69.74101563 32.60109375 69.85703125 31.4296875 69.9765625 C27.38218448 68.82408442 27.05324974 68.11468322 24.94921875 64.6328125 C23.94853313 62.76453574 22.96587664 60.8865079 22 59 C21.01564427 57.25151618 20.02475379 55.5066951 19.02734375 53.765625 C17.43879926 50.93453792 15.85434517 48.10119341 14.27075195 45.26733398 C11.35831327 40.08384484 8.38756971 34.95505031 5.265625 29.89453125 C4.6662915 28.91516602 4.06695801 27.93580078 3.44946289 26.92675781 C2.30200515 25.06144338 1.1403718 23.20475167 -0.03735352 21.35839844 C-3.37187126 15.91365528 -4.83622707 12.40410564 -4 6 C-2.1875 2.5 -2.1875 2.5 0 0 Z " fill="#F4F5F0" transform="translate(289,538)"/>
<path d="M0 0 C2.89188821 2.83201475 5.28160106 5.29187597 7 9 C5.78256678 19.70250993 -2.39257141 30.60497548 -7.72967529 39.64465332 C-8.74467081 41.36596234 -9.75053812 43.0926432 -10.75634766 44.81933594 C-11.38847168 45.87668945 -12.0205957 46.93404297 -12.671875 48.0234375 C-13.2400293 48.98169434 -13.80818359 49.93995117 -14.39355469 50.92724609 C-14.92368164 51.61125488 -15.45380859 52.29526367 -16 53 C-16.99 53 -17.98 53 -19 53 C-19.7104474 51.82608476 -20.39226744 50.63483071 -21.0625 49.4375 C-21.44535156 48.77621094 -21.82820313 48.11492188 -22.22265625 47.43359375 C-23.84303758 42.36074166 -22.22211255 38.12185699 -19.8828125 33.57421875 C-18.9758429 31.9384313 -18.05589745 30.30978985 -17.125 28.6875 C-16.64119873 27.82608398 -16.15739746 26.96466797 -15.65893555 26.07714844 C-10.66162407 17.25068632 -5.37138876 8.60253365 0 0 Z " fill="#F6F6F1" transform="translate(361,535)"/>
<path d="M0 0 C3.55957858 1.18652619 4.36546268 2.73409711 6.328125 5.8203125 C7.7602281 10.46632138 6.31508341 14.34112398 4.28515625 18.5859375 C3.55597077 19.85574905 2.81444465 21.11853191 2.0625 22.375 C1.66788574 23.05473877 1.27327148 23.73447754 0.86669922 24.43481445 C-0.41127314 26.62981088 -1.70528666 28.81484387 -3 31 C-3.90586451 32.54764095 -4.8108076 34.09582157 -5.71484375 35.64453125 C-7.78732165 39.18800607 -9.86217133 42.72987372 -11.97167969 46.25146484 C-12.88719028 47.80818063 -13.74845662 49.39651052 -14.6015625 50.98828125 C-15.06304687 51.65214844 -15.52453125 52.31601562 -16 53 C-16.99 53 -17.98 53 -19 53 C-19.68206723 51.80029246 -20.34490897 50.58964795 -21 49.375 C-21.37125 48.70210937 -21.7425 48.02921875 -22.125 47.3359375 C-23.264953 44.29267013 -23.371024 42.23839424 -23 39 C-21.83875601 36.65112011 -20.67550277 34.61135418 -19.25 32.4375 C-18.42836165 31.13055467 -17.60951669 29.82185047 -16.79296875 28.51171875 C-16.12467041 27.4451001 -16.12467041 27.4451001 -15.44287109 26.35693359 C-12.70560088 21.88559575 -10.1454262 17.31162937 -7.5625 12.75 C-6.54389444 10.95260008 -5.52442202 9.15569103 -4.50390625 7.359375 C-4.06892822 6.59077148 -3.6339502 5.82216797 -3.18579102 5.03027344 C-2.18481305 3.31643099 -1.10093845 1.65140768 0 0 Z " fill="#F3F4F0" transform="translate(370,551)"/>
<path d="M0 0 C5.99328859 5.67785235 5.99328859 5.67785235 7 9 C6.56363834 13.80553429 5.09690366 17.03583331 2.61328125 21.140625 C2.27378952 21.70771179 1.93429779 22.27479858 1.58451843 22.85906982 C0.50267749 24.66154498 -0.59204829 26.45577152 -1.6875 28.25 C-2.40386946 29.43827521 -3.11937168 30.62707371 -3.83398438 31.81640625 C-5.22456734 34.12753285 -6.62110798 36.43469157 -8.02099609 38.74023438 C-10.69802636 43.14977152 -13.35015982 47.57408843 -16 52 C-19.77991191 50.28185822 -21.24974616 48.85055846 -23 45 C-23.37466381 40.47110103 -22.74739796 37.8154617 -20.47265625 33.91015625 C-19.93157227 32.96736816 -19.39048828 32.02458008 -18.83300781 31.05322266 C-18.24874023 30.06628418 -17.66447266 29.0793457 -17.0625 28.0625 C-16.47436523 27.04720215 -15.88623047 26.0319043 -15.28027344 24.98583984 C-13.53450369 21.9818791 -11.77045824 18.98946228 -10 16 C-9.51063965 15.16871582 -9.0212793 14.33743164 -8.51708984 13.48095703 C-1.39602804 1.39602804 -1.39602804 1.39602804 0 0 Z " fill="#F4F5F0" transform="translate(352,520)"/>
<path d="M0 0 C1.70884005 1.62339805 3.37446717 3.29319053 5 5 C5 5.66 5 6.32 5 7 C5.66 7 6.32 7 7 7 C7.44730469 7.9178125 7.89460938 8.835625 8.35546875 9.78125 C12.06957167 17.34353897 16.01671584 24.50073462 20.67578125 31.52734375 C21.23652344 32.40519531 21.79726563 33.28304687 22.375 34.1875 C22.89835937 34.98542969 23.42171875 35.78335938 23.9609375 36.60546875 C25.25353323 39.58427018 25.0053604 40.9492512 24 44 C22.7295036 46.04049422 21.40568804 48.05017465 20 50 C18.20043945 49.82373047 18.20043945 49.82373047 16 49 C14.37182617 46.76611328 14.37182617 46.76611328 12.79296875 43.8203125 C12.20580078 42.74523437 11.61863281 41.67015625 11.01367188 40.5625 C10.41103516 39.428125 9.80839844 38.29375 9.1875 37.125 C7.99675263 34.91750759 6.8027575 32.71176388 5.60546875 30.5078125 C5.01813965 29.42016602 4.43081055 28.33251953 3.82568359 27.21191406 C1.52526732 23.16480567 -1.04722802 19.33926941 -3.72143555 15.53076172 C-5.27091072 12.46376541 -5.3122449 10.39496434 -5 7 C-3.90625 4.8828125 -3.90625 4.8828125 -2.5 3.125 C-2.0359375 2.52945313 -1.571875 1.93390625 -1.09375 1.3203125 C-0.55234375 0.66675781 -0.55234375 0.66675781 0 0 Z " fill="#F1F4F2" transform="translate(280,553)"/>
<path d="M0 0 C4.14767673 2.95199855 6.37359655 5.84045212 8.84765625 10.26953125 C9.18623154 10.868759 9.52480682 11.46798676 9.87364197 12.08537292 C10.9464099 13.98910009 12.00465191 15.90044985 13.0625 17.8125 C13.7757337 19.08452257 14.48991852 20.35601234 15.20507812 21.62695312 C16.52818042 23.98094103 17.84449059 26.33824927 19.15649414 28.69848633 C20.1296608 30.44131942 21.10728513 32.18203156 22.12081909 33.90170288 C25 38.79821581 25 38.79821581 25 41 C23.45891558 44.08216884 21.76503368 47.03929835 20 50 C15.8547223 48.49614239 14.57590471 46.09556827 12.46875 42.328125 C11.82292969 41.18859375 11.17710937 40.0490625 10.51171875 38.875 C9.84067625 37.66692738 9.17010706 36.45859174 8.5 35.25 C7.18085532 32.89889743 5.85595547 30.55110595 4.53125 28.203125 C3.94923828 27.15801758 3.36722656 26.11291016 2.76757812 25.03613281 C1.51725417 22.88847691 0.17758636 20.7916957 -1.22070312 18.73730469 C-3 16 -3 16 -3 14 C-3.66 14 -4.32 14 -5 14 C-5.74737188 8.02102497 -3.3231898 4.67620279 0 0 Z " fill="#F3F5F0" transform="translate(307,506)"/>
<path d="M0 0 C5.13650896 1.6311202 9.04210745 4.76415185 13.3125 7.9375 C20.07306802 12.90205349 26.89661078 17.73809707 33.87231445 22.39624023 C37.25701691 24.68408521 40.21612865 26.97131584 43 30 C40.92815703 31.70358187 38.84457677 33.3872871 36.75 35.0625 C36.16347656 35.54783203 35.57695312 36.03316406 34.97265625 36.53320312 C30.53559245 40.04795591 30.53559245 40.04795591 27.9440918 39.81591797 C24.54806917 38.3906376 22.99004472 35.05913872 21.0625 32.0625 C20.09874075 30.60779104 19.13248968 29.15473061 18.1640625 27.703125 C17.65520508 26.93806641 17.14634766 26.17300781 16.62207031 25.38476562 C13.30064216 20.50160635 9.76326971 15.76866064 6.24047852 11.02954102 C3.63045504 7.46939677 1.35265064 4.25958929 0 0 Z " fill="#F0F1ED" transform="translate(276,624)"/>
<path d="M0 0 C0.495 1.485 0.495 1.485 1 3 C-0.01293945 4.93847656 -0.01293945 4.93847656 -1.61328125 7.140625 C-2.19746826 7.95724609 -2.78165527 8.77386719 -3.38354492 9.61523438 C-4.0201001 10.48470703 -4.65665527 11.35417969 -5.3125 12.25 C-6.60818655 14.05627698 -7.90244553 15.8635788 -9.1953125 17.671875 C-10.16259277 19.01862305 -10.16259277 19.01862305 -11.14941406 20.39257812 C-14.16319356 24.63890596 -17.02991429 28.97845032 -19.88989258 33.32910156 C-21.84195459 36.29096802 -23.83180189 39.19166721 -26 42 C-27.32 41.34 -28.64 40.68 -30 40 C-30 39.34 -30 38.68 -30 38 C-30.66 38 -31.32 38 -32 38 C-33.2890625 36.42578125 -33.2890625 36.42578125 -34.625 34.3125 C-35.07101563 33.62800781 -35.51703125 32.94351563 -35.9765625 32.23828125 C-37.24158282 29.47165284 -37.47329797 28.01769614 -37 25 C-34.68017578 22.89111328 -34.68017578 22.89111328 -31.4453125 20.8203125 C-30.86973602 20.44446014 -30.29415955 20.06860779 -29.70114136 19.68136597 C-27.85262561 18.47919355 -25.98974942 17.30179766 -24.125 16.125 C-22.90779211 15.34149125 -21.69163331 14.55635013 -20.4765625 13.76953125 C-18.68801822 12.61183222 -16.8987474 11.45552132 -15.10479736 10.30621338 C-9.96955268 7.01173296 -4.96115061 3.55145607 0 0 Z " fill="#F0F1ED" transform="translate(238,488)"/>
<path d="M0 0 C8.03163366 3.95737459 15.04985144 8.8196899 22.18359375 14.1640625 C27.67404438 18.27451516 33.33699013 22.13234571 39 26 C36.41789374 31.45111321 33.61861108 36.17518523 30 41 C25.88428821 39.47076764 23.77783982 36.53792949 21.25 33.125 C20.59475342 32.25705811 20.59475342 32.25705811 19.92626953 31.37158203 C16.41962158 26.67944435 13.1557587 21.84318632 9.9609375 16.93359375 C7.28501228 12.93036697 4.39044432 9.10363959 1.46875 5.27734375 C0 3 0 3 0 0 Z " fill="#F2F3EF" transform="translate(414,488)"/>
<path d="M0 0 C5 5 5 5 5 7 C5.66 7 6.32 7 7 7 C7.96280614 8.35824438 8.91341916 9.72658912 9.8046875 11.1328125 C11.10489995 13.16386332 12.47886317 15.12746305 13.875 17.09375 C14.38546875 17.81433594 14.8959375 18.53492188 15.421875 19.27734375 C15.94265625 20.01082031 16.4634375 20.74429687 17 21.5 C19.0078541 24.32789352 21.00961161 27.15978286 23 30 C23.62648438 30.88945312 23.62648438 30.88945312 24.265625 31.796875 C27 35.76364437 27 35.76364437 27 38 C22.83924719 36.760659 19.55539991 35.27059273 15.98828125 32.8046875 C15.07014648 32.1746582 14.15201172 31.54462891 13.20605469 30.89550781 C12.25118164 30.22874023 11.29630859 29.56197266 10.3125 28.875 C9.33313477 28.19791992 8.35376953 27.52083984 7.34472656 26.82324219 C4.55697565 24.89083448 1.77713204 22.94762646 -1 21 C-1.68078613 20.52530273 -2.36157227 20.05060547 -3.06298828 19.56152344 C-11.60697679 13.58953481 -11.60697679 13.58953481 -14 10 C-9.38 6.7 -4.76 3.4 0 0 Z " fill="#EDF0EE" transform="translate(348,411)"/>
<path d="M0 0 C4.33866231 1.27233499 7.68908151 2.88775747 11.375 5.5 C12.68597656 6.41265625 12.68597656 6.41265625 14.0234375 7.34375 C15.00183594 8.16359375 15.00183594 8.16359375 16 9 C16 9.66 16 10.32 16 11 C14.11902408 12.63220168 12.24022357 14.13596616 10.25 15.625 C9.66089844 16.07157959 9.07179688 16.51815918 8.46484375 16.97827148 C3.78599874 20.49053616 -1.02489568 23.77128876 -5.921875 26.97265625 C-9.40118903 29.26423491 -12.82893122 31.62275021 -16.25 34 C-16.82363281 34.39840088 -17.39726562 34.79680176 -17.98828125 35.20727539 C-19.326125 36.13731511 -20.66315703 37.06852232 -22 38 C-22.66 37.67 -23.32 37.34 -24 37 C-22.71151404 33.48197729 -21.1984932 30.60427239 -19.0234375 27.55859375 C-18.43836426 26.73262695 -17.85329102 25.90666016 -17.25048828 25.05566406 C-16.63157715 24.19166992 -16.01266602 23.32767578 -15.375 22.4375 C-14.10834623 20.65046833 -12.84271772 18.86270951 -11.578125 17.07421875 C-10.96517578 16.20845215 -10.35222656 15.34268555 -9.72070312 14.45068359 C-6.38381694 9.69817742 -3.17989906 4.85872775 0 0 Z " fill="#EEF0ED" transform="translate(302,412)"/>
<path d="M0 0 C0.66333008 1.73510742 0.66333008 1.73510742 1 4 C-0.01293945 6.05200195 -0.01293945 6.05200195 -1.61328125 8.23828125 C-2.48992432 9.4588623 -2.48992432 9.4588623 -3.38427734 10.70410156 C-4.02059082 11.56487305 -4.6569043 12.42564453 -5.3125 13.3125 C-6.60428442 15.10444607 -7.89463601 16.89742586 -9.18359375 18.69140625 C-9.82796387 19.58230957 -10.47233398 20.47321289 -11.13623047 21.39111328 C-13.80128083 25.12162522 -16.34982478 28.92393421 -18.875 32.75 C-19.29692627 33.38719971 -19.71885254 34.02439941 -20.15356445 34.6809082 C-21.10454308 36.11917514 -22.052655 37.5593371 -23 39 C-27.31017061 37.72970045 -30.69259319 36.1335498 -34.375 33.5625 C-35.24898438 32.96566406 -36.12296875 32.36882813 -37.0234375 31.75390625 C-37.67570312 31.17511719 -38.32796875 30.59632813 -39 30 C-39 29.01 -39 28.02 -39 27 C-37.03491211 25.36523438 -37.03491211 25.36523438 -34.27734375 23.59375 C-33.26994141 22.93697266 -32.26253906 22.28019531 -31.22460938 21.60351562 C-30.13986328 20.90935547 -29.05511719 20.21519531 -27.9375 19.5 C-25.73649254 18.06524025 -23.5372733 16.62773357 -21.33984375 15.1875 C-19.71925049 14.12595703 -19.71925049 14.12595703 -18.06591797 13.04296875 C-11.87946812 8.92063937 -5.92743379 4.48357172 0 0 Z " fill="#F0F2F0" transform="translate(374,625)"/>
<path d="M0 0 C3.86995825 1.28998608 4.8494623 3.05277704 7.25 6.3125 C7.97703125 7.27800781 8.7040625 8.24351562 9.453125 9.23828125 C11 12 11 12 10.98828125 14.1328125 C6.57983676 22.46181039 -6.33632212 28.47781983 -14.09912109 33.68115234 C-15.39274128 34.57867819 -16.66117202 35.51337863 -17.90478516 36.47900391 C-19.53892108 37.74061777 -21.26550077 38.88036517 -23 40 C-25.20385742 39.6315918 -25.20385742 39.6315918 -27 39 C-20.75768996 29.87000716 -14.46653363 20.77877538 -8.06152344 11.76196289 C-5.30914285 7.88151903 -2.61756279 3.97275487 0 0 Z " fill="#EFF1EF" transform="translate(441,546)"/>
<path d="M0 0 C1.8125 0.125 1.8125 0.125 4 1 C7.38757918 4.9059372 10.2725468 9.17516085 13.1875 13.4375 C13.90063354 14.47898193 13.90063354 14.47898193 14.62817383 15.54150391 C17.86345868 20.28745067 21.05627587 25.05973482 24.1875 29.875 C24.76697388 30.7575647 24.76697388 30.7575647 25.3581543 31.65795898 C28 35.76283096 28 35.76283096 28 38 C22.73216826 36.59256404 19.17807685 34.20183695 14.9375 30.9375 C13.62113535 29.94353049 12.30339941 28.95137473 10.984375 27.9609375 C10.32373047 27.46432617 9.66308594 26.96771484 8.98242188 26.45605469 C7.08383858 25.06157799 5.1587551 23.72701165 3.203125 22.4140625 C2.61023682 22.01582275 2.01734863 21.61758301 1.40649414 21.20727539 C-0.22124977 20.12326868 -1.85460774 19.04770585 -3.48828125 17.97265625 C-7.39543981 14.90404805 -7.39543981 14.90404805 -8 12 C-6.69921875 9.23828125 -6.69921875 9.23828125 -4.6875 6.3125 C-4.03136719 5.33925781 -3.37523437 4.36601563 -2.69921875 3.36328125 C-1 1 -1 1 0 0 Z " fill="#F0F2EE" transform="translate(209,547)"/>
<path d="M0 0 C0.66 0 1.32 0 2 0 C3.32421875 1.5390625 3.32421875 1.5390625 4.6875 3.625 C5.14511719 4.29789063 5.60273438 4.97078125 6.07421875 5.6640625 C7.32825911 8.82826559 6.74882078 10.69978209 6 14 C4.81665039 16.68481445 4.81665039 16.68481445 3.34765625 19.36328125 C2.55391602 20.81637695 2.55391602 20.81637695 1.74414062 22.29882812 C1.18919922 23.29333984 0.63425781 24.28785156 0.0625 25.3125 C-0.48857422 26.32634766 -1.03964844 27.34019531 -1.60742188 28.38476562 C-5.73113153 35.86556577 -5.73113153 35.86556577 -8 37 C-13.7633062 31.38447088 -13.7633062 31.38447088 -14.4921875 27.12109375 C-14.40093615 21.05287924 -10.26058689 16.00519127 -7.125 11.0625 C-6.14853516 9.46438477 -6.14853516 9.46438477 -5.15234375 7.83398438 C-1.59684588 2.11219862 -1.59684588 2.11219862 0 0 Z " fill="#F1F3F0" transform="translate(379,567)"/>
<path d="M0 0 C0.66 0 1.32 0 2 0 C3.741821 2.32143211 5.35319088 4.63688388 6.9375 7.0625 C7.38029297 7.71927734 7.82308594 8.37605469 8.27929688 9.05273438 C12.09934339 14.8311952 16.04725382 20.81883096 15 28 C13.83498983 30.49140704 12.4893749 32.67285173 11 35 C10.01 35 9.02 35 8 35 C5.36339876 31.72626167 3.3736795 27.99667278 1.25 24.375 C0.63511719 23.37597656 0.02023437 22.37695312 -0.61328125 21.34765625 C-1.18949219 20.37441406 -1.76570313 19.40117188 -2.359375 18.3984375 C-2.89014648 17.50817871 -3.42091797 16.61791992 -3.96777344 15.70068359 C-5.24449853 12.36030209 -4.88886028 10.42269509 -4 7 C-2.8542711 4.50608408 -1.45203657 2.34199447 0 0 Z " fill="#F2F3EF" transform="translate(271,569)"/>
<path d="M0 0 C7 0 7 0 9.40234375 1.50390625 C11.59284409 4.9262283 11.62350769 8.00070966 11.5625 11.9375 C11.58634766 12.64068359 11.61019531 13.34386719 11.63476562 14.06835938 C11.62395322 17.91397083 11.09668483 19.86555039 8.83984375 23.00390625 C6 25 6 25 0 25 C0 16.75 0 8.5 0 0 Z " fill="#EDEEEA" transform="translate(788,537)"/>
<path d="M0 0 C0.99 0.33 1.98 0.66 3 1 C3.89290686 3.92359806 4.58687953 6.70309399 5.1875 9.6875 C5.36474609 10.49123047 5.54199219 11.29496094 5.72460938 12.12304688 C6.68342969 16.6506038 7 20.25234369 7 25 C2.71 25 -1.58 25 -6 25 C-2.9125 2.9125 -2.9125 2.9125 0 0 Z " fill="#D9DDDF" transform="translate(521,521)"/>
<path d="M0 0 C4.16242563 3.06705046 6.44390902 5.14010354 7.4375 10.25 C6.76781913 14.45942263 4.40175219 17.54319238 2 21 C-4.6918239 15.89308176 -4.6918239 15.89308176 -5.4375 11.3125 C-4.83339889 6.73859159 -2.63526259 3.70819094 0 0 Z " fill="#EDEFEB" transform="translate(388,583)"/>
<path d="M0 0 C4.08623873 1.36207958 4.9894555 3.26613164 7 7 C7 11.57541668 4.31547958 15.19066262 2 19 C-1.35810395 17.61043975 -3.18586552 16.17473533 -5 13 C-5.86545046 9.10547293 -4.51373049 6.93120792 -2.5 3.6875 C-1.67731214 2.45118296 -0.84733478 1.21955685 0 0 Z " fill="#EAEDEC" transform="translate(262,584)"/>
<path d="M0 0 C1.23556641 0.01740234 1.23556641 0.01740234 2.49609375 0.03515625 C3.32238281 0.04417969 4.14867187 0.05320312 5 0.0625 C5.63808594 0.07410156 6.27617188 0.08570313 6.93359375 0.09765625 C6.93359375 2.73765625 6.93359375 5.37765625 6.93359375 8.09765625 C3.63359375 8.09765625 0.33359375 8.09765625 -3.06640625 8.09765625 C-3.10882348 5.7647085 -3.10733562 3.43063058 -3.06640625 1.09765625 C-2.06640625 0.09765625 -2.06640625 0.09765625 0 0 Z " fill="#EDF0F1" transform="translate(852.06640625,536.90234375)"/>
<path d="M0 0 C2.75457718 0.37994168 3.82020574 0.8073633 5.75 2.875 C7 5 7 5 7 8 C3.7 8 0.4 8 -3 8 C-2.690625 7.236875 -2.38125 6.47375 -2.0625 5.6875 C-1.32106407 3.81210323 -0.63771783 1.91315348 0 0 Z " fill="#CAD3E1" transform="translate(378,599)"/>
<path d="M0 0 C3.2542015 2.83430453 4.5206753 4.68607774 5 9 C2.03 9 -0.94 9 -4 9 C-2.68 6.03 -1.36 3.06 0 0 Z " fill="#C9D2E1" transform="translate(361,598)"/>
<path d="M0 0 C2.4375 1.1875 2.4375 1.1875 5 3 C5.8125 5.6875 5.8125 5.6875 6 8 C3.03 8 0.06 8 -3 8 C-1.125 2.25 -1.125 2.25 0 0 Z " fill="#D4DADE" transform="translate(288,599)"/>
<path d="M0 0 C1.875 0.625 1.875 0.625 4 2 C5.25 5.125 5.25 5.125 6 8 C3.03 8 0.06 8 -3 8 C-1.125 2.25 -1.125 2.25 0 0 Z " fill="#CFD6E0" transform="translate(270,599)"/>
<path d="M0 0 C2.99324263 1.0975223 3.84610901 1.67682892 5.25 4.625 C5.4975 5.40875 5.745 6.1925 6 7 C3.03 7 0.06 7 -3 7 C-1.125 1.125 -1.125 1.125 0 0 Z " fill="#CFD6E0" transform="translate(306,600)"/>
<path d="M0 0 C2.61500768 2.36595933 4.38999603 4.86049226 6 8 C5.67 8.66 5.34 9.32 5 10 C3.02 7.36 1.04 4.72 -1 2 C-0.67 1.34 -0.34 0.68 0 0 Z " fill="#497EF7" transform="translate(324,494)"/>
</svg>
